<?xml version="1.0" standalone="no"?>
<!DOCTYPE svg PUBLIC "-//W3C//DTD SVG 20010904//EN"
 "http://www.w3.org/TR/2001/REC-SVG-20010904/DTD/svg10.dtd">
<svg version="1.0" xmlns="http://www.w3.org/2000/svg"
 width="1280.000000pt" height="1280.000000pt" viewBox="0 0 1280.000000 1280.000000"
 preserveAspectRatio="xMidYMid meet">
<metadata>
Created by potrace 1.15, written by Peter Selinger 2001-2017
</metadata>
<g transform="translate(0.000000,1280.000000) scale(0.100000,-0.100000)"
fill="currentColor" stroke="none">
<path d="M4580 11189 c-23 -9 -1390 -300 -1568 -334 -100 -19 -166 -52 -237
-116 -225 -204 -2596 -2420 -2620 -2448 -54 -64 -57 -69 -76 -143 -46 -179 -1
-391 116 -543 49 -63 956 -1032 995 -1063 61 -48 147 -93 220 -116 126 -40
182 -42 336 -12 12 3 39 13 60 24 22 11 316 278 654 594 l615 574 5 -3125 5
-3126 3207 -3 3208 -2 2 3201 3 3200 570 -532 c314 -293 630 -588 703 -655 73
-68 154 -135 180 -148 179 -90 441 -43 624 113 81 69 954 1007 1000 1074 79
116 118 237 118 367 0 92 -24 212 -51 251 -27 38 -73 82 -1299 1224 -619 577
-1189 1109 -1268 1182 -82 76 -164 144 -193 159 -49 24 -344 90 -1419 314
-135 28 -255 55 -268 60 -16 7 -55 2 -145 -19 -294 -70 -611 -120 -982 -153
-339 -30 -935 -30 -1270 0 -442 40 -894 119 -1186 206 -8 2 -25 0 -39 -5z"/>
</g>
</svg>
