<svg xmlns="http://www.w3.org/2000/svg" xmlns:xlink="http://www.w3.org/1999/xlink" width="800" zoomAndPan="magnify" viewBox="0 0 600 299.999988" height="400" preserveAspectRatio="xMidYMid meet" version="1.0"><path fill="#00a0e5" d="M 147.785156 8.371094 C 139.078125 9.160156 136.769531 12.074219 136.769531 22.292969 C 136.769531 29.160156 137.496094 31.992188 139.917969 34.601562 C 142.652344 37.550781 144.65625 37.78125 165.675781 37.558594 C 185.082031 37.351562 185.175781 37.339844 188.085938 35.722656 C 192.464844 33.28125 193.277344 31.128906 193.28125 21.972656 C 193.28125 14.742188 193.207031 14.296875 191.582031 12.371094 C 188.148438 8.292969 187.488281 8.164062 169.25 8.039062 C 160.140625 7.980469 150.476562 8.128906 147.785156 8.371094 M 522.761719 36.039062 C 520.875 36.570312 518.539062 37.421875 517.5625 37.933594 C 508.839844 42.507812 503.78125 54.199219 505.558594 65.691406 C 507.515625 78.351562 515.273438 85.523438 527.777344 86.238281 C 544.304688 87.175781 554.457031 77.347656 554.429688 60.433594 C 554.410156 48.742188 549.378906 40.4375 540.199219 36.960938 C 535.472656 35.175781 527.367188 34.742188 522.761719 36.039062 M 277.722656 60.429688 C 277.722656 79.828125 277.890625 84.550781 278.589844 84.816406 C 279.0625 85 281.328125 84.914062 283.621094 84.632812 L 287.792969 84.117188 L 287.972656 68.203125 L 288.152344 52.292969 L 292.933594 61.441406 C 295.5625 66.476562 298.492188 71.824219 299.445312 73.332031 C 301.074219 75.921875 301.320312 76.0625 303.902344 75.871094 C 306.589844 75.675781 306.671875 75.597656 309.441406 70.480469 C 310.988281 67.617188 313.867188 62.140625 315.835938 58.300781 C 317.808594 54.457031 319.496094 51.316406 319.589844 51.316406 C 319.683594 51.316406 319.617188 58.929688 319.4375 68.234375 L 319.113281 85.148438 L 324.238281 84.957031 L 329.367188 84.765625 L 329.535156 60.570312 L 329.707031 36.375 L 318.324219 36.375 L 312.03125 48.234375 C 308.566406 54.75 305.378906 60.890625 304.945312 61.871094 C 303.941406 64.125 303.574219 64.113281 302.546875 61.777344 C 302.085938 60.742188 300.167969 57.015625 298.277344 53.496094 C 296.183594 49.578125 294.097656 45.660156 292.019531 41.734375 L 289.195312 36.375 L 277.722656 36.375 Z M 340.886719 60.570312 L 341.054688 84.765625 L 346.089844 84.957031 L 351.128906 85.148438 L 351.128906 36.375 L 340.714844 36.375 Z M 394.3125 37.160156 C 394.144531 37.621094 393.929688 44.5 393.835938 52.449219 L 393.667969 66.902344 L 383.023438 51.964844 L 372.371094 37.023438 L 362.152344 37.023438 L 362.496094 84.117188 L 367.515625 84.308594 L 372.539062 84.496094 L 372.710938 69.191406 L 372.886719 53.882812 L 383.207031 68.5625 C 388.886719 76.628906 393.945312 83.652344 394.457031 84.164062 C 395.070312 84.777344 396.808594 85.09375 399.550781 85.09375 C 403.332031 85.09375 403.75 84.957031 404.070312 83.628906 C 404.265625 82.828125 404.34375 71.9375 404.242188 59.433594 L 404.066406 36.703125 L 399.347656 36.507812 C 395.9375 36.371094 394.539062 36.550781 394.3125 37.160156 M 415.261719 53.972656 C 415.34375 63.65625 415.71875 72.699219 416.09375 74.085938 C 417.105469 77.847656 420.550781 81.925781 424.527344 84.074219 C 427.285156 85.554688 429.125 86.035156 432.96875 86.257812 C 442.96875 86.835938 449.679688 83.886719 453.375 77.300781 L 455.378906 73.726562 L 455.707031 55.046875 L 456.027344 36.375 L 445.960938 36.375 L 445.933594 52.128906 C 445.910156 65.242188 445.71875 68.414062 444.796875 71.074219 C 443.179688 75.730469 441.167969 76.972656 435.238281 76.972656 C 430.847656 76.972656 430.296875 76.816406 428.492188 75.089844 C 425.515625 72.238281 425.003906 68.441406 425.269531 51.207031 L 425.5 36.375 L 415.109375 36.375 Z M 463.5 40.921875 L 463.5 45.46875 L 477.769531 45.46875 L 477.941406 65.121094 L 478.113281 84.765625 L 487.859375 84.765625 L 488.203125 44.820312 L 502.472656 44.820312 L 502.472656 36.375 L 463.5 36.375 Z M 524.964844 45.121094 C 518.953125 47.265625 515.78125 52.890625 515.800781 61.382812 C 515.808594 65.605469 516.113281 67.183594 517.421875 69.792969 C 519.839844 74.609375 522.871094 76.714844 527.984375 77.125 C 538.753906 77.988281 544.636719 71.359375 543.90625 59.164062 C 543.570312 53.566406 542 49.84375 538.859375 47.199219 C 535.339844 44.238281 529.777344 43.410156 524.964844 45.121094 M 150.644531 49.386719 C 101.609375 53.195312 57.957031 91.554688 46.429688 140.953125 C 41.433594 162.359375 42.710938 187.410156 49.84375 207.808594 C 61.605469 241.464844 87.898438 267.804688 120.667969 278.761719 C 131.429688 282.355469 139.367188 283.816406 150.734375 284.28125 C 173.183594 285.207031 193.710938 279.980469 213.328125 268.335938 C 223.949219 262.03125 238.480469 248.4375 246.035156 237.738281 C 253.917969 226.578125 261.214844 210.175781 264.390625 196.472656 C 266.046875 189.316406 265.46875 186.257812 262.097656 184.453125 C 260.140625 183.40625 252.289062 182.632812 250.363281 183.304688 C 248.335938 184.007812 247.480469 185.855469 244.242188 196.492188 C 236.308594 222.578125 219.972656 242.546875 197.25 253.949219 C 190.140625 257.515625 178.277344 261.40625 170.597656 262.695312 C 159.148438 264.613281 142.921875 263.710938 131.214844 260.503906 C 101.878906 252.464844 76.957031 228.253906 67.996094 199.089844 C 57.242188 164.074219 65.941406 126.835938 90.976562 100.769531 C 110.046875 80.914062 132.460938 70.746094 159.503906 69.695312 C 164.683594 69.496094 169.292969 69.042969 169.734375 68.6875 C 170.667969 67.949219 170.929688 50.328125 170.011719 49.761719 C 168.886719 49.066406 157.574219 48.84375 150.644531 49.386719 M 332.285156 105.339844 C 326.269531 106.191406 315.160156 110.050781 310.132812 113.03125 C 304.113281 116.59375 299.007812 120.898438 294.910156 125.867188 C 276.695312 147.949219 277.785156 185.125 297.222656 204.558594 C 304.960938 212.296875 316.507812 217.851562 328.503906 219.609375 C 335.324219 220.605469 346.195312 220.003906 351.996094 218.3125 C 355.171875 217.382812 356.351562 217.246094 356.125 217.832031 C 355.953125 218.28125 351.640625 224.917969 346.539062 232.578125 C 333.511719 252.136719 317.351562 277.324219 317.351562 278.046875 C 317.351562 278.414062 324.457031 278.660156 335.1875 278.660156 L 353.027344 278.660156 L 355.546875 274.929688 C 358.226562 270.960938 372.09375 249.367188 377.550781 240.660156 C 387.09375 225.433594 390.210938 220.292969 395.40625 211.167969 C 405.582031 193.304688 407.644531 186.769531 408.121094 170.925781 C 408.472656 159.175781 407.839844 153.515625 405.21875 145.175781 C 398.367188 123.359375 383.40625 110.515625 359.382812 105.820312 C 352.480469 104.472656 339.964844 104.246094 332.285156 105.339844 M 473.824219 105.546875 C 471.105469 106.066406 466.40625 107.378906 463.382812 108.472656 C 441.128906 116.527344 427.808594 134.523438 422.773438 163.363281 C 421.832031 168.71875 421.632812 173.917969 421.625 192.917969 C 421.617188 213.84375 421.742188 216.703125 423.03125 223.777344 C 428.261719 252.511719 442.265625 270.394531 465.152344 277.566406 C 472.011719 279.71875 478.757812 280.609375 488.144531 280.609375 C 507.242188 280.609375 523.011719 274.550781 534.015625 262.984375 C 543.824219 252.671875 549.335938 239.957031 552.289062 220.851562 C 553.957031 210.039062 553.945312 175.691406 552.265625 165.101562 C 549.222656 145.917969 542.90625 131.769531 532.839844 121.578125 C 525.621094 114.269531 516.914062 109.378906 505.871094 106.421875 C 499.226562 104.644531 481.203125 104.15625 473.824219 105.554688 M 115.960938 109.703125 C 114.023438 111.320312 113.710938 111.976562 113.710938 114.414062 C 113.710938 117.128906 114.214844 117.855469 125.730469 131.863281 C 132.339844 139.898438 140.273438 149.429688 143.367188 153.042969 L 148.996094 159.609375 L 148 162.621094 C 144.414062 173.515625 154.472656 185.636719 165.972656 184.277344 C 174.144531 183.304688 180.105469 176.949219 180.785156 168.480469 C 181.652344 157.722656 173.03125 148.597656 162.957031 149.609375 L 159.59375 149.945312 L 147.039062 135.21875 C 140.140625 127.117188 132.332031 117.921875 129.691406 114.78125 C 127.050781 111.644531 124.367188 108.789062 123.730469 108.449219 C 121.464844 107.238281 118.300781 107.746094 115.960938 109.703125 M 339.757812 135.109375 C 326.503906 136.949219 317.839844 145.878906 316.054688 159.542969 C 313.503906 178.996094 325.425781 192.917969 344.628906 192.917969 C 353.039062 192.917969 359.566406 190.324219 365.574219 184.59375 C 372.308594 178.171875 375.308594 168.722656 373.863281 158.488281 C 371.523438 141.9375 357.886719 132.585938 339.757812 135.109375 M 481.453125 135.171875 C 467.929688 137.148438 459.410156 148.121094 457.035156 166.613281 C 455.808594 176.164062 455.4375 198.015625 456.308594 209.726562 C 457.601562 227.136719 460.449219 235.460938 467.550781 242.550781 C 472.855469 247.859375 476.894531 249.476562 485.914062 249.921875 C 499.398438 250.578125 508.074219 245.925781 513.542969 235.089844 C 518.3125 225.640625 519.6875 213.707031 519.160156 186.265625 C 518.867188 170.75 518.5625 166.164062 517.515625 161.300781 C 514.214844 146.03125 505.703125 136.917969 493.054688 135.125 C 487.882812 134.398438 486.742188 134.402344 481.453125 135.171875 " fill-opacity="1" fill-rule="evenodd"/></svg>