<?xml version="1.0" encoding="UTF-8"?>
<svg xmlns="http://www.w3.org/2000/svg" xmlns:xlink="http://www.w3.org/1999/xlink" width="192px" height="192px" viewBox="0 0 192 192" version="1.1">
<defs>
<clipPath id="clip1">
  <path d="M 27.085938 27.648438 L 163.328125 27.648438 L 163.328125 160.769531 L 27.085938 160.769531 Z M 27.085938 27.648438 "/>
</clipPath>
</defs>
<g id="surface1">
<g clip-path="url(#clip1)" clip-rule="nonzero">
<path style=" stroke:none;fill-rule:evenodd;fill:rgb(0%,62.7451%,89.803922%);fill-opacity:1;" d="M -31.871094 28.09375 C -36.042969 28.472656 -37.152344 29.871094 -37.152344 34.773438 C -37.152344 38.070312 -36.804688 39.429688 -35.640625 40.683594 C -34.332031 42.097656 -33.371094 42.210938 -23.292969 42.101562 C -13.992188 42.003906 -13.949219 41.996094 -12.550781 41.222656 C -10.453125 40.050781 -10.0625 39.015625 -10.0625 34.621094 C -10.0625 31.148438 -10.097656 30.9375 -10.875 30.011719 C -12.523438 28.054688 -12.839844 27.992188 -21.582031 27.933594 C -25.949219 27.902344 -30.578125 27.976562 -31.871094 28.09375 M 147.878906 41.371094 C 146.972656 41.628906 145.855469 42.035156 145.386719 42.28125 C 141.203125 44.476562 138.78125 50.089844 139.632812 55.605469 C 140.570312 61.683594 144.289062 65.125 150.28125 65.46875 C 158.203125 65.917969 163.070312 61.203125 163.058594 53.082031 C 163.046875 47.46875 160.636719 43.484375 156.234375 41.816406 C 153.972656 40.957031 150.085938 40.75 147.878906 41.371094 M 30.414062 53.078125 C 30.414062 62.390625 30.496094 64.65625 30.832031 64.785156 C 31.058594 64.875 32.144531 64.832031 33.242188 64.699219 L 35.242188 64.449219 L 35.414062 49.175781 L 37.707031 53.566406 C 38.96875 55.980469 40.371094 58.550781 40.828125 59.273438 C 41.609375 60.515625 41.726562 60.585938 42.964844 60.492188 C 44.253906 60.398438 44.292969 60.363281 45.621094 57.902344 C 46.363281 56.53125 47.742188 53.902344 48.6875 52.058594 C 49.632812 50.214844 50.441406 48.707031 50.484375 48.707031 C 50.53125 48.707031 50.496094 52.359375 50.410156 56.824219 L 50.257812 64.945312 L 55.171875 64.761719 L 55.335938 41.535156 L 49.878906 41.535156 L 46.863281 47.226562 C 45.203125 50.355469 43.675781 53.300781 43.464844 53.773438 C 42.984375 54.855469 42.808594 54.847656 42.316406 53.726562 C 42.09375 53.230469 41.175781 51.441406 40.269531 49.753906 C 39.265625 47.871094 38.265625 45.992188 37.269531 44.105469 L 35.914062 41.535156 L 30.414062 41.535156 Z M 60.695312 53.148438 L 60.773438 64.761719 L 63.1875 64.855469 L 65.605469 64.945312 L 65.605469 41.535156 L 60.613281 41.535156 Z M 86.304688 41.910156 C 86.222656 42.132812 86.121094 45.433594 86.074219 49.25 L 85.996094 56.1875 L 80.890625 49.019531 L 75.785156 41.847656 L 70.886719 41.847656 L 71.050781 64.449219 L 73.460938 64.542969 L 75.867188 64.632812 L 75.949219 57.285156 L 76.035156 49.9375 L 80.980469 56.984375 C 83.703125 60.855469 86.128906 64.226562 86.375 64.472656 C 86.667969 64.769531 87.503906 64.921875 88.816406 64.921875 C 90.628906 64.921875 90.828125 64.855469 90.980469 64.214844 C 91.074219 63.832031 91.113281 58.605469 91.0625 52.601562 L 90.980469 41.691406 L 88.71875 41.597656 C 87.085938 41.53125 86.414062 41.617188 86.304688 41.910156 M 96.347656 49.980469 C 96.386719 54.628906 96.566406 58.96875 96.746094 59.636719 C 97.230469 61.441406 98.882812 63.398438 100.789062 64.429688 C 102.109375 65.140625 102.992188 65.371094 104.835938 65.476562 C 109.628906 65.757812 112.847656 64.339844 114.617188 61.179688 L 115.578125 59.460938 L 115.734375 50.496094 L 115.886719 41.535156 L 111.0625 41.535156 L 111.050781 49.097656 C 111.039062 55.390625 110.945312 56.910156 110.503906 58.191406 C 109.730469 60.425781 108.765625 61.023438 105.921875 61.023438 C 103.816406 61.023438 103.554688 60.945312 102.6875 60.117188 C 101.261719 58.746094 101.015625 56.925781 101.144531 48.652344 L 101.253906 41.535156 L 96.273438 41.535156 Z M 119.46875 43.714844 L 119.46875 45.898438 L 126.308594 45.898438 L 126.390625 55.332031 L 126.476562 64.761719 L 131.148438 64.761719 L 131.3125 45.589844 L 138.152344 45.589844 L 138.152344 41.535156 L 119.46875 41.535156 Z M 148.933594 45.730469 C 146.050781 46.761719 144.53125 49.460938 144.542969 53.539062 C 144.542969 55.5625 144.691406 56.320312 145.316406 57.574219 C 146.476562 59.886719 147.929688 60.898438 150.382812 61.09375 C 155.542969 61.507812 158.363281 58.324219 158.015625 52.472656 C 157.851562 49.785156 157.101562 48 155.59375 46.730469 C 153.90625 45.308594 151.238281 44.910156 148.933594 45.730469 M -30.5 47.78125 C -54.007812 49.609375 -74.929688 68.019531 -80.457031 91.730469 C -82.851562 102.007812 -82.238281 114.03125 -78.820312 123.820312 C -73.183594 139.976562 -60.578125 152.621094 -44.871094 157.878906 C -39.710938 159.605469 -35.90625 160.304688 -30.457031 160.53125 C -19.695312 160.972656 -9.855469 158.464844 -0.453125 152.875 C 4.640625 149.851562 11.605469 143.324219 15.226562 138.1875 C 19.003906 132.832031 22.503906 124.957031 24.027344 118.382812 C 24.820312 114.945312 24.542969 113.476562 22.925781 112.613281 C 21.988281 112.109375 18.222656 111.738281 17.300781 112.058594 C 16.328125 112.398438 15.921875 113.285156 14.367188 118.390625 C 10.5625 130.910156 2.730469 140.496094 -8.160156 145.96875 C -11.566406 147.683594 -17.253906 149.550781 -20.9375 150.167969 C -26.425781 151.089844 -34.203125 150.65625 -39.8125 149.117188 C -53.875 145.257812 -65.824219 133.636719 -70.117188 119.636719 C -75.273438 102.828125 -71.105469 84.957031 -59.101562 72.445312 C -49.960938 62.910156 -39.214844 58.03125 -26.253906 57.527344 C -23.769531 57.433594 -21.558594 57.214844 -21.351562 57.042969 C -20.902344 56.691406 -20.777344 48.230469 -21.214844 47.960938 C -21.757812 47.625 -27.179688 47.519531 -30.5 47.78125 M 56.570312 74.636719 C 53.6875 75.046875 48.363281 76.898438 45.953125 78.328125 C 43.066406 80.039062 40.621094 82.105469 38.652344 84.488281 C 29.925781 95.089844 30.445312 112.933594 39.765625 122.261719 C 43.472656 125.976562 49.007812 128.640625 54.757812 129.484375 C 58.027344 129.964844 63.238281 129.675781 66.019531 128.863281 C 67.542969 128.417969 68.109375 128.351562 67.996094 128.632812 C 67.914062 128.851562 65.851562 132.035156 63.402344 135.710938 C 57.160156 145.101562 49.410156 157.191406 49.410156 157.535156 C 49.410156 157.710938 52.816406 157.832031 57.960938 157.832031 L 66.515625 157.832031 L 67.722656 156.039062 C 69.007812 154.136719 75.652344 143.769531 78.269531 139.59375 C 82.84375 132.28125 84.339844 129.8125 86.828125 125.433594 C 91.707031 116.859375 92.695312 113.722656 92.925781 106.117188 C 93.09375 100.476562 92.789062 97.761719 91.53125 93.757812 C 88.246094 83.285156 81.074219 77.121094 69.558594 74.867188 C 66.253906 74.222656 60.253906 74.113281 56.570312 74.636719 M 124.421875 74.734375 C 123.117188 74.984375 120.863281 75.617188 119.414062 76.140625 C 108.746094 80.007812 102.363281 88.644531 99.949219 102.488281 C 99.496094 105.058594 99.398438 107.554688 99.398438 116.675781 C 99.394531 126.71875 99.453125 128.09375 100.070312 131.488281 C 102.578125 145.28125 109.292969 153.863281 120.261719 157.304688 C 123.550781 158.339844 126.785156 158.765625 131.285156 158.765625 C 140.4375 158.765625 147.996094 155.859375 153.273438 150.304688 C 157.972656 145.355469 160.617188 139.253906 162.03125 130.082031 C 162.832031 124.890625 162.824219 108.40625 162.019531 103.320312 C 160.5625 94.113281 157.535156 87.324219 152.707031 82.433594 C 149.246094 78.925781 145.074219 76.574219 139.78125 75.15625 C 136.597656 74.304688 127.957031 74.070312 124.421875 74.738281 M -47.125 76.730469 C -48.054688 77.507812 -48.203125 77.820312 -48.203125 78.992188 C -48.203125 80.296875 -47.964844 80.644531 -42.445312 87.367188 C -39.273438 91.226562 -35.472656 95.800781 -33.988281 97.535156 L -31.289062 100.6875 L -31.769531 102.132812 C -33.484375 107.363281 -28.664062 113.179688 -23.152344 112.527344 C -19.234375 112.058594 -16.378906 109.011719 -16.050781 104.945312 C -15.636719 99.78125 -19.769531 95.402344 -24.597656 95.886719 L -26.210938 96.046875 L -32.226562 88.980469 C -35.535156 85.089844 -39.277344 80.675781 -40.542969 79.171875 C -41.808594 77.664062 -43.097656 76.292969 -43.402344 76.128906 C -44.488281 75.546875 -46.003906 75.792969 -47.125 76.730469 M 60.152344 88.925781 C 53.800781 89.808594 49.644531 94.097656 48.789062 100.652344 C 47.566406 109.992188 53.28125 116.675781 62.488281 116.675781 C 66.519531 116.675781 69.648438 115.429688 72.527344 112.679688 C 75.757812 109.597656 77.195312 105.0625 76.503906 100.148438 C 75.378906 92.203125 68.84375 87.714844 60.152344 88.925781 M 128.074219 88.957031 C 121.59375 89.90625 117.511719 95.171875 116.371094 104.046875 C 115.785156 108.632812 115.605469 119.121094 116.023438 124.742188 C 116.640625 133.101562 118.007812 137.097656 121.410156 140.496094 C 123.953125 143.046875 125.890625 143.820312 130.214844 144.035156 C 136.679688 144.351562 140.839844 142.117188 143.457031 136.917969 C 145.746094 132.382812 146.402344 126.652344 146.152344 113.480469 C 146.011719 106.035156 145.863281 103.832031 145.363281 101.496094 C 143.78125 94.171875 139.699219 89.792969 133.636719 88.933594 C 131.15625 88.585938 130.613281 88.589844 128.074219 88.957031 "/>
</g>
</g>
</svg>
