<?xml version="1.0" encoding="UTF-8"?>
<svg xmlns="http://www.w3.org/2000/svg" xmlns:xlink="http://www.w3.org/1999/xlink" width="512px" height="512px" viewBox="0 0 512 512" version="1.1">
<defs>
<clipPath id="clip1">
  <path d="M 72.222656 74 L 435 74 L 435 428.714844 L 72.222656 428.714844 Z M 72.222656 74 "/>
</clipPath>
</defs>
<g id="surface1">
<g clip-path="url(#clip1)" clip-rule="nonzero">
<path style=" stroke:none;fill-rule:evenodd;fill:rgb(0%,62.7451%,89.803922%);fill-opacity:1;" d="M -84.988281 74.910156 C -96.117188 75.925781 -99.070312 79.652344 -99.070312 92.730469 C -99.070312 101.523438 -98.144531 105.148438 -95.046875 108.484375 C -91.550781 112.261719 -88.988281 112.558594 -62.117188 112.273438 C -37.3125 112.003906 -37.195312 111.996094 -33.472656 109.925781 C -27.878906 106.800781 -26.835938 104.042969 -26.832031 92.324219 C -26.832031 83.066406 -26.929688 82.496094 -29.003906 80.03125 C -33.390625 74.8125 -34.234375 74.644531 -57.550781 74.484375 C -69.195312 74.410156 -81.546875 74.601562 -84.988281 74.910156 M 394.339844 110.324219 C 391.929688 111.007812 388.945312 112.097656 387.695312 112.753906 C 376.542969 118.609375 370.078125 133.574219 372.351562 148.28125 C 374.851562 164.484375 384.769531 173.667969 400.753906 174.582031 C 421.878906 175.78125 434.859375 163.207031 434.820312 141.550781 C 434.792969 126.585938 428.367188 115.957031 416.628906 111.507812 C 410.59375 109.222656 400.230469 108.667969 394.339844 110.324219 M 81.109375 141.546875 C 81.109375 166.378906 81.324219 172.421875 82.21875 172.761719 C 82.820312 172.996094 85.71875 172.886719 88.652344 172.527344 L 93.984375 171.867188 L 94.441406 131.128906 L 100.554688 142.84375 C 103.914062 149.285156 107.660156 156.132812 108.875 158.0625 C 110.960938 161.375 111.273438 161.558594 114.574219 161.3125 C 118.011719 161.0625 118.117188 160.964844 121.652344 154.410156 C 123.632812 150.746094 127.3125 143.738281 129.828125 138.820312 C 132.351562 133.902344 134.507812 129.882812 134.628906 129.882812 C 134.746094 129.882812 134.660156 139.625 134.433594 151.535156 L 134.015625 173.1875 L 147.125 172.699219 L 147.339844 141.726562 L 147.5625 110.757812 L 133.007812 110.757812 L 124.964844 125.9375 C 120.539062 134.277344 116.464844 142.136719 115.910156 143.390625 C 114.625 146.277344 114.15625 146.261719 112.84375 143.273438 C 112.25 141.945312 109.800781 137.179688 107.386719 132.671875 C 104.710938 127.660156 102.042969 122.644531 99.386719 117.617188 L 95.777344 110.757812 L 81.109375 110.757812 Z M 161.851562 141.726562 L 162.0625 172.699219 L 168.5 172.945312 L 174.945312 173.1875 L 174.945312 110.757812 L 161.632812 110.757812 Z M 230.144531 111.765625 C 229.929688 112.351562 229.652344 121.15625 229.535156 131.332031 L 229.324219 149.835938 L 215.710938 130.714844 L 202.097656 111.589844 L 189.035156 111.589844 L 189.472656 171.867188 L 195.894531 172.113281 L 202.316406 172.351562 L 202.535156 152.761719 L 202.757812 133.167969 L 215.945312 151.957031 C 223.210938 162.28125 229.675781 171.273438 230.332031 171.925781 C 231.113281 172.714844 233.339844 173.121094 236.84375 173.121094 C 241.675781 173.121094 242.207031 172.945312 242.617188 171.242188 C 242.871094 170.21875 242.96875 156.277344 242.835938 140.273438 L 242.613281 111.179688 L 236.582031 110.929688 C 232.222656 110.753906 230.4375 110.980469 230.144531 111.765625 M 256.921875 133.285156 C 257.03125 145.679688 257.507812 157.253906 257.988281 159.03125 C 259.28125 163.84375 263.683594 169.0625 268.769531 171.8125 C 272.292969 173.707031 274.644531 174.324219 279.558594 174.609375 C 292.339844 175.347656 300.921875 171.574219 305.644531 163.140625 L 308.207031 158.566406 L 308.625 134.65625 L 309.035156 110.757812 L 296.164062 110.757812 L 296.132812 130.921875 C 296.101562 147.707031 295.855469 151.765625 294.675781 155.171875 C 292.613281 161.128906 290.042969 162.726562 282.457031 162.726562 C 276.847656 162.726562 276.144531 162.523438 273.835938 160.316406 C 270.03125 156.660156 269.375 151.800781 269.71875 129.742188 L 270.011719 110.757812 L 256.730469 110.757812 Z M 318.585938 116.574219 L 318.585938 122.398438 L 336.828125 122.398438 L 337.046875 147.550781 L 337.269531 172.699219 L 349.726562 172.699219 L 350.164062 121.566406 L 368.40625 121.566406 L 368.40625 110.757812 L 318.585938 110.757812 Z M 397.15625 121.953125 C 389.472656 124.699219 385.417969 131.898438 385.445312 142.769531 C 385.449219 148.171875 385.839844 150.191406 387.515625 153.53125 C 390.609375 159.695312 394.480469 162.394531 401.019531 162.917969 C 414.785156 164.019531 422.304688 155.535156 421.371094 139.925781 C 420.9375 132.761719 418.933594 128 414.917969 124.613281 C 410.421875 120.820312 403.308594 119.765625 397.15625 121.953125 M -81.332031 127.414062 C -144.015625 132.289062 -199.8125 181.386719 -214.550781 244.617188 C -220.9375 272.015625 -219.308594 304.085938 -210.1875 330.191406 C -195.152344 373.273438 -161.542969 406.988281 -119.652344 421.011719 C -105.898438 425.609375 -95.75 427.484375 -81.222656 428.078125 C -52.523438 429.265625 -26.28125 422.570312 -1.207031 407.667969 C 12.375 399.601562 30.945312 382.199219 40.601562 368.5 C 50.675781 354.21875 60.003906 333.222656 64.070312 315.683594 C 66.1875 306.523438 65.445312 302.609375 61.136719 300.296875 C 58.632812 298.960938 48.597656 297.96875 46.132812 298.828125 C 43.546875 299.726562 42.453125 302.089844 38.308594 315.707031 C 28.171875 349.097656 7.285156 374.65625 -21.761719 389.253906 C -30.847656 393.820312 -46.011719 398.800781 -55.828125 400.449219 C -70.464844 402.902344 -91.207031 401.75 -106.171875 397.644531 C -143.667969 387.355469 -175.53125 356.363281 -186.980469 319.035156 C -200.730469 274.214844 -189.609375 226.550781 -157.605469 193.183594 C -133.230469 167.765625 -104.574219 154.753906 -70.011719 153.40625 C -63.386719 153.152344 -57.492188 152.570312 -56.933594 152.117188 C -55.738281 151.171875 -55.402344 128.617188 -56.574219 127.894531 C -58.015625 127.003906 -72.476562 126.71875 -81.332031 127.414062 M 150.859375 199.035156 C 143.167969 200.121094 128.964844 205.0625 122.539062 208.878906 C 114.84375 213.441406 108.320312 218.949219 103.078125 225.308594 C 79.796875 253.574219 81.1875 301.15625 106.039062 326.03125 C 115.925781 335.9375 130.6875 343.046875 146.019531 345.296875 C 154.742188 346.570312 168.640625 345.800781 176.054688 343.636719 C 180.113281 342.449219 181.621094 342.273438 181.328125 343.023438 C 181.109375 343.601562 175.601562 352.089844 169.078125 361.898438 C 152.425781 386.933594 131.765625 419.171875 131.765625 420.097656 C 131.765625 420.566406 140.847656 420.886719 154.566406 420.886719 L 177.371094 420.886719 L 180.59375 416.105469 C 184.015625 411.03125 201.742188 383.386719 208.71875 372.246094 C 220.917969 352.753906 224.902344 346.171875 231.542969 334.492188 C 244.550781 311.625 247.1875 303.265625 247.796875 282.980469 C 248.246094 267.941406 247.433594 260.699219 244.085938 250.019531 C 235.328125 222.097656 216.203125 205.660156 185.492188 199.648438 C 176.671875 197.925781 160.671875 197.632812 150.859375 199.035156 M 331.785156 199.296875 C 328.308594 199.960938 322.304688 201.644531 318.4375 203.046875 C 289.988281 213.355469 272.964844 236.390625 266.527344 273.300781 C 265.324219 280.160156 265.066406 286.8125 265.0625 311.128906 C 265.050781 337.921875 265.210938 341.578125 266.859375 350.632812 C 273.542969 387.414062 291.445312 410.304688 320.699219 419.484375 C 329.464844 422.238281 338.089844 423.375 350.089844 423.375 C 374.5 423.375 394.660156 415.621094 408.726562 400.816406 C 421.265625 387.617188 428.308594 371.34375 432.085938 346.886719 C 434.21875 333.046875 434.203125 289.082031 432.054688 275.523438 C 428.164062 250.96875 420.089844 232.863281 407.222656 219.820312 C 397.996094 210.464844 386.863281 204.203125 372.753906 200.414062 C 364.257812 198.144531 341.214844 197.519531 331.785156 199.308594 M -125.667969 204.617188 C -128.144531 206.6875 -128.542969 207.523438 -128.542969 210.644531 C -128.542969 214.121094 -127.902344 215.050781 -113.183594 232.980469 C -104.730469 243.269531 -94.59375 255.464844 -90.632812 260.089844 L -83.441406 268.496094 L -84.714844 272.351562 C -89.296875 286.296875 -76.441406 301.8125 -61.738281 300.074219 C -51.296875 298.828125 -43.675781 290.691406 -42.804688 279.851562 C -41.695312 266.085938 -52.714844 254.40625 -65.59375 255.695312 L -69.894531 256.128906 L -85.941406 237.28125 C -94.761719 226.90625 -104.742188 215.136719 -108.117188 211.121094 C -111.492188 207.105469 -114.921875 203.445312 -115.738281 203.011719 C -118.632812 201.460938 -122.675781 202.113281 -125.667969 204.617188 M 160.410156 237.136719 C 143.464844 239.492188 132.390625 250.921875 130.105469 268.410156 C 126.847656 293.3125 142.085938 311.128906 166.632812 311.128906 C 177.386719 311.128906 185.726562 307.8125 193.40625 300.480469 C 202.015625 292.257812 205.851562 280.164062 204.003906 267.0625 C 201.011719 245.878906 183.585938 233.910156 160.410156 237.136719 M 341.535156 237.214844 C 324.25 239.75 313.359375 253.792969 310.324219 277.460938 C 308.757812 289.683594 308.28125 317.660156 309.390625 332.644531 C 311.046875 354.933594 314.6875 365.589844 323.765625 374.660156 C 330.542969 381.457031 335.710938 383.523438 347.238281 384.097656 C 364.476562 384.9375 375.566406 378.980469 382.554688 365.113281 C 388.65625 353.019531 390.410156 337.742188 389.738281 302.617188 C 389.367188 282.757812 388.96875 276.886719 387.636719 270.660156 C 383.414062 251.121094 372.535156 239.449219 356.367188 237.15625 C 349.753906 236.230469 348.296875 236.234375 341.535156 237.214844 "/>
</g>
</g>
</svg>
